<?xml version="1.0" encoding="utf-8"?>
<!-- Generator: Adobe Illustrator 12.0.0, SVG Export Plug-In  -->
<!DOCTYPE svg PUBLIC "-//W3C//DTD SVG 1.1//EN" "http://www.w3.org/Graphics/SVG/1.1/DTD/svg11.dtd" [
	<!ENTITY ns_flows "http://ns.adobe.com/Flows/1.0/">
	<!ENTITY ns_svg "http://www.w3.org/2000/svg">
	<!ENTITY ns_xlink "http://www.w3.org/1999/xlink">
]>
<svg  version="1.1" xmlns="&ns_svg;" xmlns:xlink="&ns_xlink;" xmlns:a="http://ns.adobe.com/AdobeSVGViewerExtensions/3.0/"
	 width="215" height="301" viewBox="-0.8457031 -0.0810547 215 301" enable-background="new -0.8457031 -0.0810547 215 301"
	 xml:space="preserve">
<defs>
</defs>
<path fill="#FFFFFF" d="M32.1411133,79.0849609c0.0581055,0.1479492,0.1313477,0.3334961,0.2026367,0.5151367h149.9765625
	c0.0761719-0.1816406,0.1513672-0.3671875,0.2128906-0.5141602C168.3115234,79.0859375,46.1069336,79.0849609,32.1411133,79.0849609
	z"/>
<path d="M187.3154297,79.8408203c1.0019531-1.203125,1.2539063-2.7583008,0.8544922-4.6645508
	c-0.1025391-0.0493164-0.1025391-0.1494141-0.1513672-0.25c-0.0507813-0.1000977-0.1513672-0.1503906-0.2011719-0.2006836
	c-0.7021484-0.3505859-1.4042969-0.7021484-2.1064453-1.0522461c0.9023438-0.652832,1.4541016-1.3056641,1.7548828-2.0581055
	c0.2021484-0.5517578,0.2519531-1.2026367,0.2021484-1.8544922c0.0498047,0.1005859,0.1494141,0.1005859,0.1992188,0.1499023
	c0.1513672,0.1005859,0.3027344,0.1005859,0.4501953,0.1005859c1.6572266-0.3510742,2.7089844-1.1035156,3.1621094-2.15625
	c0.5009766-0.953125,0.3496094-2.206543-0.3017578-3.8618164l13.6904297-32.6489258l4.8164063,1.9560547l3.8105469-8.9775391
	l-4.7138672-1.9052734l-1.7060547,3.9121094l-1.7548828-0.7021484l1.6552734-4.012207l-4.6640625-1.9560547l-1.7060547,4.0117188
	l-1.7548828-0.7514648l1.6542969-4.012207l-4.7626953-2.0058594l-3.7617188,9.0771484l5.4648438,2.2563477l-1.3535156,3.109375
	l-2.7089844-1.203125c-0.1494141-0.050293-0.3007813-0.050293-0.3505859-0.050293c-0.0996094,0-0.1992188,0-0.2998047,0.050293
	l-3.0097656,1.5541992l-3.8115234-1.2529297l-1.9550781,5.9677734l-3.5117188-1.2041016l2.1074219-6.2685547l-6.7714844-2.1567383
	l-2.1054688,6.168457l-4.0126953-1.3041992l2.1054688-6.21875l-2.5556641-0.8525391l-1.4052734-2.7075195
	c-0.0498047-0.1005859-0.1494141-0.1503906-0.1992188-0.2509766c-0.0517578-0.0507813-0.2021484-0.0996094-0.3027344-0.0996094
	l-2.9072266-0.7519531l0.7519531-3.1601563l5.6152344,1.3535156l2.359375-9.7290039l-4.9658203-1.2041016l-1.0537109,4.3637695
	l-1.8056641-0.4013672l1.0537109-4.362793l-4.9140625-1.2036133l-1.1542969,4.3623047l-1.7558594-0.4003906l1.0039063-4.4638672
	l-5.0146484-1.2041016l-1.1035156,4.4145508l-1.8056641-0.4521484L152.6621094,4.3125l-4.9160156-1.203125l-2.3564453,9.6289063
	l5.6162109,1.4550781l-0.8027344,3.2089844l-2.8583984-0.7016602c-0.1494141-0.050293-0.3007813-0.050293-0.3505859-0.050293
	c-0.0996094,0.050293-0.2001953,0.050293-0.3007813,0.1000977l-2.8085938,2.0561523l-3.8105469-0.5014648l-0.7041016,5.8681641
	l-4.7636719-0.5517578l0.7021484-5.7670898L128.1875,17.0019531l-0.7519531,5.7666016l-3.8125-0.4511719l0.6513672-5.7675781
	l-4.4638672-0.5009766l-2.2548828-2.5581055c-0.0507813-0.1010742-0.2011719-0.1503906-0.2519531-0.2504883
	c-0.0996094-0.050293-0.2490234-0.050293-0.2998047-0.050293h-3.0087891V9.8798828h5.8154297V0h-5.1132813v4.3637695h-1.9052734V0
	h-5.1660156v4.3637695h-1.8066406V0h-5.1640625v4.3637695h-1.9067383V0h-5.1147461v9.8798828h5.8173828v3.3100586H96.440918
	c-0.0488281,0-0.2001953,0-0.2495117,0.050293c-0.1005859,0.1000977-0.1518555,0.1494141-0.2519531,0.2504883l-2.3056641,2.5581055
	l-4.4140625,0.5009766l0.7016602,5.7675781l-3.9111328,0.4511719l-0.7016602-5.7666016l-7.1728516,0.8525391l0.7021484,5.7670898
	l-4.7138672,0.5517578l-0.7016602-5.8681641l-3.8623047,0.5014648l-2.8071289-2.0561523
	c-0.1005859-0.0498047-0.2011719-0.0498047-0.3012695-0.1000977c-0.1000977,0-0.2006836,0-0.2514648,0.050293l-2.9589844,0.7016602
	l-0.8027344-3.2089844l5.6679688-1.4550781L65.7495117,3.109375L60.7841797,4.3125l1.0527344,4.3637695L60.081543,9.128418
	l-1.1035156-4.4145508l-5.0654297,1.2041016l1.0541992,4.4638672l-1.8061523,0.4003906l-1.0522461-4.3623047l-4.9155273,1.2036133
	l0.9521484,4.362793l-1.7548828,0.4013672l-1.1035156-4.3637695L40.371582,9.2280273l2.3076172,9.7290039l5.6166992-1.3535156
	l0.8027344,3.1601563l-2.9589844,0.7519531c-0.1005859,0-0.1503906,0.0488281-0.2509766,0.0996094
	c-0.050293,0.1005859-0.1005859,0.1503906-0.2006836,0.2509766l-1.4545898,2.7075195l-2.4575195,0.8525391l2.1074219,6.21875
	l-4.012207,1.3041992l-2.1069336-6.168457L30.8935547,28.9375l2.15625,6.2685547l-3.5610352,1.2041016l-1.9560547-5.9677734
	l-3.7104492,1.2529297l-3.1098633-1.5541992c-0.050293-0.050293-0.2006836-0.050293-0.300293-0.050293
	c-0.0498047,0-0.2011719,0-0.2514648,0.050293l-2.8081055,1.203125l-1.3046875-3.109375l5.4169922-2.2563477l-3.7617188-9.0771484
	l-4.7133789,2.0058594l1.6040039,4.012207l-1.7041016,0.7514648l-1.7558594-4.0117188l-4.6645508,1.9560547L8.125,25.6274414
	l-1.7558594,0.7021484l-1.7050781-3.9121094L0,24.3227539l3.7612305,8.9775391l4.9155273-1.9560547l13.640625,32.6489258
	c-0.7021484,1.6552734-0.8525391,2.9086914-0.3505859,3.8618164c0.4511719,1.0527344,1.5039063,1.8051758,3.1591797,2.15625
	c0.1503906,0,0.3007813,0,0.5014648-0.1005859c0.1005859-0.0493164,0.1499023-0.0493164,0.2006836-0.1499023
	c-0.1000977,0.6518555-0.0507813,1.3027344,0.2509766,1.8544922c0.2006836,0.7524414,0.7514648,1.4052734,1.6542969,2.0581055
	c-0.7016602,0.3500977-1.4033203,0.7016602-2.0053711,1.0522461c-0.1503906,0.050293-0.2514648,0.1005859-0.3012695,0.2006836
	c-0.0507813,0.1005859-0.0507813,0.2006836-0.1503906,0.25c-0.4013672,1.90625-0.1503906,3.4614258,0.8530273,4.6645508H187.3154297
	z"/>
<path fill="#FBF11E" d="M139.9736328,49.2988281l-1.4052734-0.199707h-0.1005859
	c-0.9023438-0.1518555-1.7539063-0.3022461-2.6572266-0.3510742l-1.4550781-0.1513672h-0.0498047
	c-0.7529297-0.1000977-1.6054688-0.2011719-2.3564453-0.3012695l-1.4052734-0.0996094
	c-0.9521484-0.1010742-1.8535156-0.2504883-2.7578125-0.3007813l-1.4052734-0.1503906
	c-1.3535156-0.0507813-2.7578125-0.2011719-4.1113281-0.3012695H122.21875h-1.4042969
	c-0.8525391-0.1000977-1.7041016-0.1000977-2.5576172-0.2006836h-22.96875
	c-0.9541016,0.1005859-1.8056641,0.1005859-2.5566406,0.2006836h-0.0517578h-1.4042969
	c-1.4541016,0.1000977-2.7587891,0.2504883-4.1118164,0.3012695l-1.4047852,0.1503906h-0.0488281
	c-0.9541016,0.050293-1.8554688,0.199707-2.7587891,0.3007813l-1.3549805,0.0996094H81.546875
	c-0.8027344,0.1000977-1.5541992,0.2011719-2.3076172,0.3012695h-0.1005859l-1.4042969,0.1513672
	c-0.9013672,0.0488281-1.8554688,0.1992188-2.7578125,0.3510742l-1.4541016,0.199707
	c-6.5693359,1.0029297-12.9389648,2.2578125-19.1083984,3.9116211l-1.402832,0.3007813
	c-0.902832,0.2011719-1.8061523,0.5019531-2.6582031,0.7026367v0.1000977l-1.4052734,0.3505859
	c-1.003418,0.3012695-1.9555664,0.5517578-2.9086914,0.9042969h-0.0498047L44.6347656,55.96875
	c-1.0537109,0.3510742-2.105957,0.7524414-3.159668,1.0537109l-1.3032227,0.5014648
	c-0.953125,0.3510742-1.855957,0.6513672-2.8095703,1.003418l0.1015625-0.0512695l-1.3544922,0.5527344
	c-0.902832,0.3505859-1.7558594,0.7011719-2.5078125,1.0522461l-1.5043945,0.5522461h0.1005859
	c-2.7587891,1.1035156-5.4165039,2.3574219-8.0244141,3.6606445l-0.652832,0.5522461
	c-0.4013672,1.0024414-0.4511719,1.7548828-0.2504883,2.4067383c0,0.050293,0,0.050293,0.0512695,0.1503906
	c0.3007813,0.5517578,0.9018555,0.953125,1.8549805,1.1542969l0.0498047-0.050293l1.6044922-0.7524414
	c0.1010742-0.1005859,0.1503906-0.1005859,0.2509766-0.1005859c4.8149414-2.3564453,9.8305664-4.5136719,15.0458984-6.3188477
	c1.4536133-0.5014648,3.0087891-1.003418,4.5639648-1.5053711c17.9033203-5.7666016,37.965332-8.625,60.03125-8.625
	c22.1162109,0,42.1777344,2.8583984,60.1318359,8.625c1.4541016,0.5019531,3.0087891,1.0039063,4.5126953,1.5053711
	c5.2148438,1.8051758,10.28125,3.9624023,15.0966797,6.3188477c0.1005859,0,0.1005859,0,0.1494141,0.1005859l1.6552734,0.7524414
	h0.0488281v0.050293c0.9033203-0.2011719,1.5566406-0.6025391,1.9082031-1.1542969c0-0.1000977,0-0.1000977,0-0.1503906
	c0.1992188-0.6518555,0.1494141-1.4042969-0.2011719-2.4067383l-0.6523438-0.5522461
	c-2.6064453-1.3032227-5.2666016-2.5571289-8.0244141-3.6606445l-1.4052734-0.5522461h-0.0488281
	c-0.8027344-0.3510742-1.6552734-0.7016602-2.5068359-1.0522461l-1.3056641-0.5527344v0.0512695
	c-0.9013672-0.3520508-1.7548828-0.6523438-2.7070313-1.003418h-0.0517578l-1.3535156-0.5014648h0.1015625
	c-1.0527344-0.3012695-2.1064453-0.7026367-3.1601563-1.0537109l-1.4042969-0.3999023
	c-1.0019531-0.3525391-2.0048828-0.6030273-2.9599609-0.9042969h0.0517578l-1.4042969-0.3505859v-0.1000977
	c-0.9033203-0.2006836-1.7548828-0.5014648-2.6582031-0.7026367l-1.5048828-0.3007813
	C152.9121094,51.5566406,146.4921875,50.3017578,139.9736328,49.2988281z"/>
<path fill="#FBF11E" d="M47.1416016,61.2348633c-1.5537109,0.4521484-3.0585938,0.953125-4.5126953,1.4541016
	c-5.1650391,1.8056641-10.1303711,3.9121094-14.9956055,6.21875c-0.4511719,0.8027344-0.5014648,1.6054688-0.300293,2.2070313
	c0.300293,0.6523438,0.9023438,1.2529297,1.9057617,1.7548828c4.7133789-2.3061523,9.628418-4.3623047,14.6943359-6.1181641
	C45.4375,66.25,46.9921875,65.6992188,48.546875,65.2460938c17.3520508-5.6162109,36.7104492-8.4243164,58.1757813-8.4243164
	c21.4648438,0,40.9228516,2.8081055,58.2753906,8.4243164c1.5058594,0.453125,3.0605469,1.0039063,4.6142578,1.5053711
	c4.9658203,1.7558594,9.9287109,3.8120117,14.6435547,6.1181641c0.953125-0.5019531,1.6064453-1.1025391,1.8564453-1.7548828
	c0.25-0.6015625,0.1513672-1.4042969-0.2011719-2.2070313h-0.0488281c-4.8642578-2.3066406-9.78125-4.4130859-14.9472656-6.21875
	c-1.4541016-0.5009766-3.0087891-1.0019531-4.5117188-1.4541016c-17.8544922-5.7675781-37.8144531-8.6254883-59.6806641-8.6254883
	C84.8574219,52.609375,64.9467773,55.4672852,47.1416016,61.2348633z"/>
<path fill="#FBF11E" d="M48.9477539,66.5512695c-1.5551758,0.5014648-3.0087891,1.0532227-4.5141602,1.5541992h-0.0498047
	C39.21875,69.9106445,34.3037109,72.0180664,29.5898438,74.375c-1.003418,0.4511719-1.956543,0.9516602-2.9589844,1.4541016
	c-0.3510742,1.7553711,0.199707,3.1098633,1.6044922,3.9614258c22.0668945-11.534668,48.1455078-17.3017578,78.4873047-17.3017578
	c30.3408203,0,56.4707031,5.7670898,78.4863281,17.3017578c1.4042969-0.8515625,2.0068359-2.2060547,1.6054688-3.9614258
	c-0.9521484-0.5024414-1.9550781-1.0029297-2.8583984-1.4541016c-4.7646484-2.3569336-9.7294922-4.4643555-14.8457031-6.2695313
	c-1.5029297-0.5009766-3.0585938-1.0527344-4.5126953-1.5541992c-17.3017578-5.5668945-36.6113281-8.3251953-57.875-8.3251953
	C85.4580078,58.2260742,66.2001953,60.984375,48.9477539,66.5512695z"/>
<path fill="#FBF11E" d="M159.3828125,51.7563477h0.0986328c-0.6523438-10.2817383-2.6074219-16.0488281-5.8173828-17.4023438
	c-1.7558594-0.2006836-3.7617188,0.8520508-5.9677734,3.1098633c-2.3066406,2.2563477-4.8154297,5.7167969-7.5732422,10.4311523
	C146.7939453,48.8476563,153.1621094,50.1513672,159.3828125,51.7563477z"/>
<path d="M158.6796875,50.8540039c-5.6181641-1.4047852-11.3837891-2.6079102-17.4023438-3.5107422
	c2.5058594-4.1625977,4.8144531-7.2724609,6.8701172-9.3789063c2.0068359-2.0551758,3.7607422-2.9589844,5.4160156-2.9082031
	C156.2724609,36.359375,158.0273438,41.6259766,158.6796875,50.8540039z"/>
<path fill="#FBF11E" d="M195.0888672,49.2485352h0.7539063l0.3496094-0.8022461
	c-3.359375-0.2001953-8.1738281,3.3608398-14.2919922,10.8334961c2.7578125,1.2026367,5.515625,2.4570313,8.1738281,3.8115234
	l0.3505859-0.7539063c-3.5097656-1.6035156-5.9677734-2.7075195-7.3720703-3.3085938
	C188.0185547,53.0102539,192.0292969,49.7011719,195.0888672,49.2485352z"/>
<path fill="#FBF11E" d="M54.0634766,51.7563477c6.21875-1.6049805,12.6381836-2.9086914,19.2583008-3.8613281
	c-2.7583008-4.7143555-5.215332-8.1748047-7.472168-10.4311523c-2.2563477-2.2578125-4.3139648-3.3105469-6.0688477-3.1098633
	C56.621582,35.7075195,54.7148438,41.4746094,54.0634766,51.7563477z"/>
<path d="M72.1689453,47.3432617c-5.96875,0.902832-11.7348633,2.105957-17.3027344,3.5107422
	c0.6513672-9.2280273,2.3076172-14.4946289,5.1152344-15.7978516c1.5541992-0.0507813,3.3110352,0.8530273,5.3666992,2.9082031
	C67.3549805,40.0708008,69.7119141,43.1806641,72.1689453,47.3432617z"/>
<path fill="#FBF11E" d="M116.8027344,45.7880859c-3.1083984-10.6323242-6.46875-16.2490234-10.0800781-16.9008789
	c-3.5610352,0.6518555-6.9707031,6.2685547-10.0297852,16.9008789H116.8027344z"/>
<path d="M106.7226563,29.6396484c3.1591797,0.7021484,6.2695313,5.8671875,9.1787109,15.4472656H97.6450195
	C100.5546875,35.5068359,103.5629883,30.3417969,106.7226563,29.6396484z"/>
<path fill="#FBF11E" d="M23.1191406,62.3374023l0.3022461,0.7539063c2.6577148-1.3544922,5.4160156-2.6088867,8.1743164-3.8115234
	c-6.1689453-7.4726563-10.9335938-11.0336914-14.2431641-10.8334961l0.2514648,0.8022461h0.7514648
	c3.059082,0.4526367,7.0712891,3.7617188,12.1367188,9.7802734C29.0375977,59.6298828,26.5805664,60.7338867,23.1191406,62.3374023z
	"/>
<path fill="#FBF11E" d="M153.9648438,32.9492188c0.0498047,0,0.0498047,0,0.1494141,0.1015625
	c3.8632813,1.203125,6.1201172,7.6210938,6.7714844,19.1567383c0.9033203,0.2011719,1.7568359,0.5014648,2.6572266,0.6523438
	h0.0517578l1.5546875-24.6743164l-18.9082031-4.5146484l-10.2792969,23.6723633
	c0.9013672,0.1000977,1.8056641,0.2504883,2.7070313,0.3505859c2.9101563-5.0654297,5.5673828-8.7758789,8.0244141-11.2338867
	C149.4003906,33.8022461,151.8085938,32.5981445,153.9648438,32.9492188z"/>
<path d="M149.9023438,25.5268555c0.6015625,0.2006836,0.9541016,1.2539063,1.0048828,3.2094727l-3.5107422-0.8520508
	C148.3974609,26.1289063,149.2509766,25.3764648,149.9023438,25.5268555z"/>
<path d="M161.0869141,28.1855469c0.6015625,0.2006836,0.953125,1.253418,1.0527344,3.309082l-3.5107422-0.8520508
	C159.5830078,28.887207,160.4355469,28.0351563,161.0869141,28.1855469z"/>
<path fill="#FBF11E" d="M196.7451172,47.0922852l2.8564453-6.7202148l-8.3740234-3.5605469l-13.3408203,20.8632813
	c0.8535156,0.3505859,1.7050781,0.7011719,2.5576172,1.0517578h0.0517578
	C187.4658203,50.2016602,192.8818359,46.3398438,196.7451172,47.0922852z"/>
<path d="M195.0888672,42.6787109l-3.4111328-1.4038086c1.2041016-1.6054688,2.2070313-2.2573242,2.8095703-2.0566406
	C195.0888672,39.519043,195.2900391,40.671875,195.0888672,42.6787109z"/>
<path fill="#FBF11E" d="M59.3793945,33.0507813c0.0512695-0.1015625,0.0512695-0.1015625,0.1513672-0.1015625
	c2.15625-0.3510742,4.5625,0.8530273,7.3227539,3.5107422c2.3564453,2.4580078,5.0141602,6.168457,7.921875,11.2338867
	c0.9033203-0.1000977,1.8574219-0.2504883,2.7602539-0.3505859L67.2529297,23.6708984l-18.8569336,4.5146484l1.5561523,24.6743164
	c0.9008789-0.1508789,1.8041992-0.4511719,2.7070313-0.6523438C53.3125,40.671875,55.5175781,34.2539063,59.3793945,33.0507813z"/>
<path d="M63.6425781,25.5268555c0.6513672-0.1503906,1.4047852,0.6020508,2.4082031,2.3574219l-3.5117188,0.8520508
	C62.5883789,26.7807617,63.0410156,25.7275391,63.6425781,25.5268555z"/>
<path d="M54.8662109,30.6425781l-3.5112305,0.8520508c0.0512695-2.0556641,0.4013672-3.1083984,1.0541992-3.309082
	C53.0112305,28.0351563,53.8632813,28.887207,54.8662109,30.6425781z"/>
<path fill="#FBF11E" d="M92.5791016,45.9887695c0.9033203-0.050293,1.7548828-0.050293,2.7089844-0.1508789
	c3.3603516-11.8349609,7.1728516-17.9536133,11.3847656-18.3544922c4.3125,0.4008789,8.1738281,6.5195313,11.5839844,18.3544922
	c0.8535156,0.1005859,1.7050781,0.1005859,2.6083984,0.1508789l-4.4130859-25.7773438H97.0942383L92.5791016,45.9887695z"/>
<path d="M102.8618164,24.0717773H99.199707c0.5522461-1.8549805,1.2036133-2.8579102,1.8549805-2.9082031
	C101.65625,21.2138672,102.3095703,22.2167969,102.8618164,24.0717773z"/>
<path d="M114.2451172,24.0717773h-3.5605469c0.5019531-1.8549805,1.1035156-2.8579102,1.8056641-2.9082031
	C113.1425781,21.2138672,113.6943359,22.2167969,114.2451172,24.0717773z"/>
<path fill="#FBF11E" d="M33.0498047,58.7265625c0.8032227-0.3505859,1.7050781-0.7011719,2.5078125-1.0517578L22.2675781,36.8115234
	l-8.3256836,3.5605469l2.8583984,6.7202148C20.6621094,46.3398438,26.0791016,50.2016602,33.0498047,58.7265625z"/>
<path d="M18.4560547,42.6787109c-0.2006836-2.0068359-0.1005859-3.159668,0.6015625-3.4604492
	c0.6025391-0.2006836,1.5043945,0.4511719,2.7080078,2.0566406L18.4560547,42.6787109z"/>
<path fill="#FBF11E" d="M163.6943359,12.8891602l0.9033203-4.012207l-2.2578125-0.5512695l-1.0039063,4.0117188
	l-4.4619141-1.0537109l0.9013672-4.0112305l-2.2548828-0.5517578l-1.0029297,4.012207l-4.5146484-1.1538086l0.9042969-4.1123047
	l-2.2578125-0.5009766l-1.5546875,6.8193359l22.71875,5.4672852l1.7050781-6.8208008l-2.2568359-0.5517578l-1.0029297,4.0625
	L163.6943359,12.8891602z"/>
<path fill="#FBF11E" d="M163.0419922,20.5126953l0.8027344-3.2602539l-11.4345703-2.7089844l-0.7509766,3.2104492
	L163.0419922,20.5126953z"/>
<path fill="#FBF11E" d="M147.3447266,18.1054688l-2.3056641,1.6044922l1.3027344,2.5571289l19.3574219,4.6645508
	l2.2587891-1.6557617l-1.2548828-2.5073242L147.3447266,18.1054688z"/>
<path fill="#FBF11E" d="M143.6337891,20.2114258l-2.2558594-0.2509766l-0.7539063,5.7670898l-7.5722656-0.8530273
	l0.6523438-5.7666016l-4.3125-0.5522461l-0.7011719,5.8183594l-6.6220703-0.7524414l0.6523438-5.7670898l-2.9589844-0.3515625
	l-1.9560547,2.2070313l1.4052734,8.3251953l22.5166016,2.5561523l3.3603516-7.671875L143.6337891,20.2114258z"/>
<path fill="#FBF11E" d="M136.5126953,31.394043l-0.4013672,3.6113281l3.5097656,0.4008789l1.5029297-3.5102539
	L136.5126953,31.394043z"/>
<path fill="#FBF11E" d="M134.6572266,34.855957l0.4511719-3.5610352l-8.6757813-1.0537109l-0.4013672,3.5610352
	L134.6572266,34.855957z"/>
<path fill="#FBF11E" d="M137.2646484,40.7729492l1.8056641-4.012207l-7.7236328-0.9023438l-0.5019531,4.1625977
	L137.2646484,40.7729492z"/>
<path fill="#FBF11E" d="M184.859375,38.0151367l-6.1191406-2.105957l1.9560547-5.6679688l-4.1142578-1.4536133l-2.0039063,5.815918
	l-6.6201172-2.2563477l1.9052734-5.7666016l-0.8525391-0.3012695l-2.4580078,1.7558594l-0.5009766,8.3242188l19.609375,6.6201172
	l4.4628906-7.1210938l-0.953125-2.8076172l-2.3564453-0.8037109L184.859375,38.0151367z"/>
<path fill="#FBF11E" d="M190.5761719,32.7993164l0.9033203,2.6069336l8.5751953,3.6113281l1.6542969-3.8618164l-8.6269531-3.6098633
	L190.5761719,32.7993164z"/>
<path fill="#FBF11E" d="M170.515625,39.4189453l-4.5644531-1.6044922l-0.2519531,3.7612305l3.6123047,1.1542969
	L170.515625,39.4189453z"/>
<path fill="#FBF11E" d="M171.7675781,39.7695313l-1.1025391,3.4111328l6.8720703,2.3061523l1.1523438-3.3598633
	L171.7675781,39.7695313z"/>
<path fill="#FBF11E" d="M165.6503906,42.9794922l-0.2001953,3.3603516l6.4707031,2.2568359l1.0517578-3.159668
	L165.6503906,42.9794922z"/>
<path fill="#FBF11E" d="M167.90625,54.2138672h0.0517578l1.7041016-4.9150391l-4.3632813-1.5048828l-0.3505859,5.5166016
	C165.9511719,53.6113281,166.9033203,53.862793,167.90625,54.2138672z"/>
<path fill="#FBF11E" d="M175.5302734,51.2543945l-1.7060547,4.965332c0.9033203,0.3007813,1.8066406,0.6020508,2.7578125,1.0029297
	l2.9589844-4.6132813L175.5302734,51.2543945z"/>
<path fill="#FBF11E" d="M172.5712891,55.7177734l1.6044922-4.8637695l-3.1582031-1.152832l-1.7060547,4.9633789
	c1.0546875,0.3510742,2.1074219,0.7026367,3.1591797,1.0532227H172.5712891z"/>
<path fill="#FBF11E" d="M174.2265625,45.8378906l-1.0537109,3.1601563l7.1220703,2.3574219l1.8056641-2.8588867
	L174.2265625,45.8378906z"/>
<path fill="#FBF11E" d="M182.9033203,47.2426758l1.9560547-3.0600586l-4.8652344-1.6542969l-1.1035156,3.4101563
	L182.9033203,47.2426758z"/>
<path fill="#FBF11E" d="M198.75,19.6591797l-2.2050781-0.9023438l-2.6601563,6.4697266l15.1464844,6.3193359l2.6582031-6.3193359
	l-2.2060547-0.9038086l-1.6054688,3.7617188l-4.2626953-1.8051758l1.5048828-3.8115234l-2.0068359-0.8525391l-1.6542969,3.8110352
	l-4.3632813-1.8046875L198.75,19.6591797z"/>
<path fill="#FBF11E" d="M202.2617188,33.902832l1.2519531-3.109375L198.75,28.7875977l-1.3046875,3.0581055L202.2617188,33.902832z"
	/>
<path fill="#FBF11E" d="M59.0292969,10.7329102l-1.003418-4.012207l-2.2563477,0.5517578l0.9023438,4.0112305l-4.4633789,1.0537109
	l-1.0541992-4.0117188l-2.2568359,0.5512695l0.9033203,4.012207l-4.5141602,1.0532227l-1.0532227-4.0625l-2.206543,0.5517578
	l1.6552734,6.8208008l22.7695313-5.4672852l-1.6542969-6.8193359l-2.2583008,0.5009766l1.003418,4.1123047L59.0292969,10.7329102z"
	/>
<path fill="#FBF11E" d="M49.6503906,17.2524414l0.7524414,3.2602539l11.4848633-2.7587891l-0.753418-3.2104492
	L49.6503906,17.2524414z"/>
<path fill="#FBF11E" d="M72.1689453,19.9604492l-2.3076172,0.2509766l-1.4047852,2.7080078l3.3110352,7.671875l22.5175781-2.5561523
	l1.4536133-8.3251953l-2.0048828-2.2070313l-2.9584961,0.3515625l0.7021484,5.7670898l-6.7216797,0.7524414l-0.6005859-5.8183594
	l-4.3632813,0.5522461l0.7021484,5.7666016l-7.6738281,0.8530273L72.1689453,19.9604492z"/>
<path fill="#FBF11E" d="M67.203125,22.2670898l1.3046875-2.5571289l-2.3076172-1.6044922l-19.3583984,4.6630859
	l-1.3544922,2.5073242l2.3579102,1.6557617L67.203125,22.2670898z"/>
<path fill="#FBF11E" d="M46.9921875,28.0351563l-2.4580078-1.7558594l-0.953125,0.3012695l2.0068359,5.7666016l-6.7207031,2.2563477
	l-1.9550781-5.815918l-4.0625,1.4536133l1.9560547,5.6679688l-6.1186523,2.105957l-1.9570313-5.7680664l-2.40625,0.8037109
	l-1.0024414,2.8076172l4.5629883,7.1210938l19.6098633-6.6201172L46.9921875,28.0351563z"/>
<path fill="#FBF11E" d="M47.5444336,37.8144531l-4.5151367,1.6044922l1.1538086,3.3110352l3.5610352-1.1542969
	L47.5444336,37.8144531z"/>
<path fill="#FBF11E" d="M21.9667969,35.40625l0.953125-2.6069336l-2.5576172-1.253418l-8.5766602,3.6098633l1.6044922,3.8618164
	L21.9667969,35.40625z"/>
<path fill="#FBF11E" d="M31.4448242,48.496582l1.8061523,2.8588867l7.0200195-2.3574219L39.21875,45.8378906L31.4448242,48.496582z"
	/>
<path fill="#FBF11E" d="M33.4516602,42.5283203l-4.7646484,1.6542969l1.9550781,3.0600586l4.0131836-1.3041992
	L33.4516602,42.5283203z"/>
<path fill="#FBF11E" d="M48.0952148,46.3398438l-0.2006836-3.3603516l-7.3222656,2.4575195l1.0541992,3.159668
	L48.0952148,46.3398438z"/>
<path fill="#FBF11E" d="M34.8056641,42.1269531l1.1030273,3.3598633l6.9208984-2.3061523l-1.1538086-3.4111328
	L34.8056641,42.1269531z"/>
<path fill="#FBF11E" d="M40.9741211,55.7177734c1.0527344-0.3505859,2.1557617-0.7021484,3.2592773-1.0532227l-1.7045898-4.9633789
	l-3.2099609,1.152832L40.9741211,55.7177734z"/>
<path fill="#FBF11E" d="M39.6694336,56.2197266l-1.7050781-4.965332l-3.9619141,1.3549805l2.909668,4.6132813
	C37.8139648,56.8217773,38.7670898,56.5205078,39.6694336,56.2197266z"/>
<path fill="#FBF11E" d="M45.5878906,54.2138672c0.9521484-0.3510742,1.956543-0.6025391,2.9589844-0.9033203l-0.3515625-5.5166016
	l-4.3120117,1.5048828L45.5878906,54.2138672z"/>
<path fill="#FBF11E" d="M72.3691406,31.8959961l1.503418,3.5102539l3.5117188-0.4008789l-0.4018555-3.6113281L72.3691406,31.8959961
	z"/>
<path fill="#FBF11E" d="M74.4746094,36.7607422l1.7055664,4.012207l6.4702148-0.7519531l-0.5522461-4.1625977L74.4746094,36.7607422
	z"/>
<path fill="#FBF11E" d="M118.4101563,1.4545898h-2.3095703v4.362793h-4.7138672V1.5546875h-2.3076172v4.2626953h-4.6625977
	V1.5546875h-2.3076172v4.2626953h-4.7138672v-4.362793h-2.3569336v7.0209961h23.3720703V1.4545898z"/>
<path fill="#FBF11E" d="M118.5566406,16.7006836l-1.8037109-2.105957H96.7929688l-1.8569336,2.105957l1.8569336,2.105957h19.9599609
	L118.5566406,16.7006836z"/>
<path fill="#FBF11E" d="M112.5908203,13.1899414V9.8798828h-11.6855469v3.3100586H112.5908203z"/>
<path fill="#FBF11E" d="M92.6796875,34.7041016l0.2006836,1.4550781l0.2006836-1.5048828L92.6796875,34.7041016z"/>
<path fill="#FBF11E" d="M93.3818359,33.2001953l0.6025391-3.7612305l-5.5673828,0.6518555l0.4516602,3.5610352
	L93.3818359,33.2001953z"/>
<path fill="#FBF11E" d="M78.7890625,34.855957l8.675293-1.0537109l-0.4506836-3.5610352l-8.6259766,1.0537109L78.7890625,34.855957z
	"/>
<path fill="#FBF11E" d="M91.2753906,34.855957l-7.7729492,0.8515625l0.5522461,4.1635742l7.6728516-0.9038086L91.2753906,34.855957z
	"/>
<path fill="#FBF11E" d="M87.0136719,46.3398438c1.3535156-0.050293,2.7583008-0.2006836,4.1611328-0.3007813l0.8535156-5.065918
	v-0.0488281l-0.0493164-0.5522461l-5.5673828,0.7026367L87.0136719,46.3398438z"/>
<path fill="#FBF11E" d="M85.609375,46.4902344l-0.6020508-5.2661133l-2.7583008,0.2504883l0.5507813,5.2666016
	C83.703125,46.6904297,84.706543,46.5405273,85.609375,46.4902344z"/>
<path fill="#FBF11E" d="M81.3955078,46.9418945l-0.5507813-5.315918l-4.0117188,0.5009766l2.1567383,5.065918
	C79.7919922,47.0922852,80.6435547,46.9921875,81.3955078,46.9418945z"/>
<path fill="#FBF11E" d="M122.21875,34.855957l-0.5,4.1113281l7.7724609,0.9038086l0.453125-4.1635742L122.21875,34.855957z"/>
<path fill="#FBF11E" d="M120.6640625,36.1591797l0.1503906-1.4550781l-0.4003906-0.0498047L120.6640625,36.1591797z"/>
<path fill="#FBF11E" d="M124.6269531,33.6518555l0.4003906-3.5610352l-5.5654297-0.6518555l0.6513672,3.7612305
	L124.6269531,33.6518555z"/>
<path fill="#FBF11E" d="M127.9375,46.4902344c0.9013672,0.050293,1.8037109,0.2001953,2.7070313,0.2509766l0.6533203-5.2666016
	l-2.7597656-0.2504883L127.9375,46.4902344z"/>
<path fill="#FBF11E" d="M132.0986328,46.9418945c0.7509766,0.050293,1.6054688,0.1503906,2.3583984,0.2509766h0.0986328
	l2.1582031-5.065918l-4.0136719-0.5009766L132.0986328,46.9418945z"/>
<path fill="#FBF11E" d="M121.5673828,40.3720703l-0.0507813,0.5522461v0.0488281l0.8535156,5.065918
	c1.3535156,0.1000977,2.7578125,0.2504883,4.0625,0.3007813h0.1005859l0.6015625-5.2651367L121.5673828,40.3720703z"/>
<path fill="#FBF11E" d="M16.9013672,18.7568359l-2.1064453,0.9023438l1.5551758,3.9624023l-4.3637695,1.8046875
	l-1.5546875-3.8110352l-2.105957,0.8525391l1.5546875,3.8115234l-4.2128906,1.8051758l-1.7055664-3.7617188l-2.105957,0.9038086
	l2.6577148,6.3193359l15.1464844-6.3193359L16.9013672,18.7568359z"/>
<path fill="#FBF11E" d="M14.7446289,28.7875977L9.9296875,30.793457l1.3544922,3.109375l4.8149414-2.0571289L14.7446289,28.7875977z
	"/>
<path fill="#FFFFFF" d="M106.5849609,65.1787109c-31.1474609,0-57.9643555,6.1347656-70.1347656,14.9604492h140.2705078
	C164.5478516,71.3134766,137.7324219,65.1787109,106.5849609,65.1787109z"/>
<path d="M18.6972656,81.1254883l-0.0004883,31.6567383c0,10.7626953,2.5961914,31.8168945,9.9130859,55.7324219
	c10.6943359,34.953125,28.3701172,68.2851563,52.5361328,99.0712891l25.2944336,29.9609375l23.7119141-29.3798828
	l0.4560547-0.5800781c63.4560547-80.8359375,64.1894531-154.074707,64.1894531-154.8046875l-0.0009766-31.6567383H18.6972656z
	 M192.4042969,83.5209961c0.0205078,2.190918-0.0009766,29.2729492-0.0009766,29.2729492
	c0,0.7114258-0.7578125,73.1601563-63.6787109,153.3144531l-0.4208984,0.5371094c0,0-20.0214844,25.1044922-21.7763672,27.1357422
	c-1.65625-2.1074219-23.4980469-27.6738281-23.4980469-27.6738281
	C59.0463867,235.5546875,41.5073242,202.4833984,30.8994141,167.8125
	c-7.2397461-23.6616211-9.8085938-44.4321289-9.8085938-55.0302734c0,0,0.0009766-27.0522461,0.0009766-29.2612305
	C23.4370117,83.5209961,190.0800781,83.5209961,192.4042969,83.5209961z"/>
<path d="M194.796875,79.5639648H17.1357422l-0.0004883,33.2182617c0,10.8706055,2.6137695,32.1098633,9.980957,56.1884766
	c10.7509766,35.1386719,28.515625,68.6416016,52.8012695,99.5791016L106.4667969,300l24.9003906-30.8515625l0.46875-0.5957031
	c63.7861328-81.2568359,64.5234375-155.0341797,64.5234375-155.7705078l-0.0009766-33.2182617H194.796875z M193.2353516,82.6870117
	c0,2.8222656,0.0009766,30.0952148,0.0009766,30.0952148c-0.0009766,0.7260742-0.8310547,73.5527344-63.8554688,153.8408203
	l-0.4560547,0.578125c0,0-20.3681641,25.2373047-22.5117188,27.8925781
	c-2.2109375-2.6181641-24.0742188-28.515625-24.0742188-28.515625
	c-24.0112305-30.5908203-41.5981445-63.7519531-52.2353516-98.5205078
	c-7.2670898-23.7504883-9.8452148-44.6196289-9.8452148-55.2753906c0,0,0.0004883-27.2729492,0.0004883-30.0952148
	C23.2993164,82.6870117,190.1953125,82.6870117,193.2353516,82.6870117z"/>
<path d="M192.4042969,81.9589844H19.5297852l-0.0004883,30.8232422c0,10.7055664,2.5869141,31.6611328,9.8764648,55.4873047
	C40.0708008,203.125,57.6987305,236.3671875,81.8007813,267.0712891
	c0.2592773,0.3056641,21.8808594,25.6162109,23.4990234,27.6748047l1.1708984,1.4902344l1.2382813-1.4345703
	c1.7548828-2.03125,20.9970703-26.15625,21.8154297-27.1826172l0.4287109-0.546875
	c63.2285156-80.5458984,64.0117188-153.5498047,64.0117188-154.277832l0.0009766-30.8496094L192.4042969,81.9589844z
	 M190.8427734,85.0825195c0,2.7753906-0.0009766,27.7099609-0.0009766,27.7099609
	c-0.0009766,0.7177734-0.875,72.7709961-63.3447266,152.3520508l-0.421875,0.5371094
	c-0.171875,0.2138672-15.9160156,19.9541016-20.5488281,25.6464844
	c-4.8359375-5.7792969-21.5151367-25.3046875-22.3095703-26.2353516
	c-23.8227539-30.3505859-41.2729492-63.2509766-51.8237305-97.7363281
	c-7.1894531-23.4975586-9.7402344-44.0839844-9.7402344-54.5742188c0,0,0.0004883-24.9013672,0.0004883-27.699707
	C25.6914063,85.0825195,187.8037109,85.0825195,190.8427734,85.0825195z"/>
<path fill="#FFFFFF" d="M163.3554688,112.565918c0,0.0834961,0.0019531,0.1230469,0.0019531,0.2163086
	c0,9.2407227-5.9277344,69.71875-57.4799805,135.3916016C54.3242188,182.5,50.1367188,122.0229492,50.1367188,112.7822266
	c0-0.0932617,0.0014648-0.1328125,0.0014648-0.2163086C52.1333008,112.565918,161.3613281,112.565918,163.3554688,112.565918z"/>
<path d="M50.1381836,111.5249023h-1.0336914l-0.0087891,1.2573242c0,6.9765625,1.8076172,24.6923828,8.5830078,46.8383789
	c9.5952148,31.3588867,25.5361328,61.3676758,47.3793945,89.1948242l0.8193359,1.0439453l0.8188477-1.0439453
	c56.1328125-71.5068359,57.703125-135.4077148,57.703125-136.0332031l-0.0126953-1.2470703l-1.03125-0.0102539H50.1381836z"/>
<path fill="#FF7F00" d="M49.1044922,111.4726563l-0.0605469,1.3095703c0,6.9794922,1.8081055,24.7026367,8.5849609,46.8535156
	C67.2255859,191,83.1694336,221.015625,105.0170898,248.8486328l0.8193359,1.0429688l0.9008789-1.0429688
	c56.1435547-71.5214844,57.7138672-135.440918,57.7138672-136.0664063l-0.0126953-1.2480469l-1.0820313-0.0615234H50.1381836
	H49.1044922z"/>
<path d="M105.0996094,248.7832031c-21.8408203-27.8222656-37.7783203-57.8261719-47.3706055-89.1777344
	c-6.7739258-22.1401367-8.581543-39.8496094-8.581543-46.8232422l0.0087891-1.2573242l0.9819336,0.0517578h113.2172852
	l1.0302734,0.0102539l-0.0390625,1.1967773c0,0.6240234-1.5693359,64.5063477-57.6914063,135.9995117l-0.777832,1.0429688
	L105.0996094,248.7832031z"/>
<path fill="#FF0000" d="M57.230957,159.7578125c-6.7915039-22.2001953-8.6040039-39.9736328-8.6040039-46.9794922
	l0.0087891-1.2578125l0.003418-0.5444336l0.1323242,0.0068359L19.8945313,82.3525391l-0.0004883,30.4296875
	c0,10.6801758,2.5820313,31.5922852,9.8603516,55.3808594c5.6738281,18.5429688,13.3398438,36.6230469,22.8867188,54.1123047
	l21.3286133-21.1455078C67.1416016,187.6601563,61.5419922,173.8466797,57.230957,159.7578125z"/>
<path d="M19.3740234,82.3525391l-0.0009766,30.4296875c0,10.7158203,2.5888672,31.6899414,9.8837891,55.5341797
	c5.6391602,18.4296875,13.3530273,36.6689453,22.9277344,54.2080078l0.331543,0.6083984l22.0893555-21.9003906l-0.171875-0.3369141
	c-6.815918-13.4472656-12.4365234-27.3398438-16.7045898-41.2900391l0,0
	c-6.7744141-22.1411133-8.581543-39.8525391-8.581543-46.8271484c0,0,0.0087891-1.2524414,0.0087891-1.253418
	c0.4018555,0.0209961,0.953125,0.0517578,0.953125,0.0517578L19.3740234,81.1030273V82.3525391z M30.2524414,168.0107422
	c-7.2612305-23.7329102-9.8378906-44.5834961-9.8378906-55.2285156c0,0,0.0004883-26.8833008,0.0004883-29.1801758
	c1.6494141,1.6347656,27.1582031,26.9257813,27.703125,27.4663086c-0.0009766,0.1298828-0.0117188,1.7070313-0.0117188,1.7070313
	c0,7.0356445,1.8168945,24.8759766,8.6269531,47.1347656l0,0c4.2495117,13.8896484,9.8408203,27.7177734,16.6064453,41.1113281
	c-0.5014648,0.4970703-19.6113281,19.4433594-20.5605469,20.3847656
	C43.3930664,204.1162109,35.8046875,186.1591797,30.2524414,168.0107422z"/>
<path fill="#FFFFFF" d="M193.3242188,82.793457l-28.5195313,28.2768555l0.1191406,0.0009766l-0.0566406,1.7124023
	c0,0.480957-0.0742188,38.1948242-25.4667969,88.0532227l20.5195313,20.3447266
	c33.1972656-60.4643555,33.6806641-107.8144531,33.6806641-108.3994141L193.3242188,82.793457z"/>
<path d="M192.9580078,82.4238281l-29.40625,29.1557617c0,0,0.4638672,0.0039063,0.8339844,0.0073242
	c-0.0166016,0.5063477-0.0380859,1.1791992-0.0380859,1.1791992c-0.0009766,1.565918-0.2890625,38.5087891-25.4111328,87.8354492
	l-0.1728516,0.3378906l21.28125,21.0986328l0.3320313-0.6064453
	c33.3583984-60.7578125,33.7441406-108.1772461,33.7441406-108.6494141l-0.2871094-31.2265625L192.9580078,82.4238281z
	 M192.8154297,84.0322266c0.0205078,2.2666016,0.2646484,28.7553711,0.2646484,28.7553711
	c0,0.4628906-0.390625,47.3017578-33.2890625,107.5336914c-0.9316406-0.9238281-19.2568359-19.0927734-19.7597656-19.5917969
	c25.0576172-49.3710938,25.3574219-86.390625,25.3574219-87.9458008c0,0,0.0478516-1.4599609,0.0527344-1.6113281
	C165.9550781,110.6640625,191.1855469,85.6474609,192.8154297,84.0322266z"/>
<polygon points="50.1381836,111.0561523 48.7714844,110.9829102 106.8320313,168.5478516 164.8046875,111.0703125 
	163.3603516,111.0561523 "/>
<path d="M48.7714844,110.9829102l-0.1323242-0.0068359l-0.003418,0.5444336l-0.0087891,1.2578125
	c0,7.0058594,1.8125,24.7792969,8.6040039,46.9794922c4.3110352,14.0888672,9.9106445,27.9023438,16.7387695,41.3720703
	l32.8623047-32.5820313L48.7714844,110.9829102z"/>
<polygon points="104.6904297,249.1044922 104.6884766,249.1015625 104.6821289,249.0947266 "/>
<path d="M73.9697266,201.1298828c8.3950195,16.5615234,18.6523438,32.6005859,30.71875,47.9716797l2.1425781,2.6376953
	l1.6914063-2.7753906c13.1044922-16.6953125,23.1601563-32.9707031,30.8779297-48.1269531l-32.5683594-32.2890625
	L73.9697266,201.1298828z"/>
<path d="M139.4003906,200.8369141c25.3925781-49.8583984,25.4667969-87.5722656,25.4667969-88.0532227l0.0566406-1.7124023
	l-0.1191406-0.0009766l-57.9726563,57.4775391L139.4003906,200.8369141z"/>
<polygon fill="none" points="104.6904297,249.1044922 104.6884766,249.1015625 104.6821289,249.0947266 "/>
<polygon fill="#FFFFFF" points="19.8945313,82.3227539 19.8945313,82.3525391 48.7714844,110.9829102 50.1381836,111.0561523 
	106.8310547,111.0561523 106.8310547,82.3227539 "/>
<path d="M106.8310547,81.8027344H18.6303711l0.8974609,0.9199219l29.0180664,28.7700195l1.5644531,0.0830078l57.2421875,0.0009766
	V81.8027344H106.8310547z M106.3105469,82.84375c0,0.9848633,0,26.7070313,0,27.6918945c-1.0219727,0-56.1723633,0-56.1723633,0
	s-0.8535156-0.0454102-1.1411133-0.0620117c-0.2700195-0.2675781-26.2426758-26.0185547-27.8681641-27.6298828
	C23.5136719,82.84375,105.296875,82.84375,106.3105469,82.84375z"/>
<polygon fill="#FF0000" points="193.3203125,82.3227539 106.8310547,82.3227539 106.8310547,111.0561523 163.3603516,111.0561523 
	164.8046875,111.0703125 193.3242188,82.793457 "/>
<path d="M193.3203125,81.8027344h-87.0097656v29.7739258h57.0498047l1.65625,0.0166016l28.8300781-28.5839844l-0.0097656-1.206543
	H193.3203125z M192.5351563,82.84375c-0.8164063,0.809082-27.6416016,27.40625-27.9423828,27.7041016
	c-0.3134766-0.0029297-1.2265625-0.012207-1.2265625-0.012207s-54.9931641,0-56.0136719,0c0-0.9848633,0-26.7070313,0-27.6918945
	C108.3710938,82.84375,191.0019531,82.84375,192.5351563,82.84375z"/>
<path fill="#FF0000" d="M129.2451172,267.3847656l0.421875-0.5371094
	c12.3027344-15.6728516,22.2294922-31.0498047,30.2529297-45.6660156l-20.5195313-20.3447266
	c-7.7177734,15.15625-17.7734375,31.4316406-30.8779297,48.1269531l-1.6914063,2.7753906v43.4921875L129.2451172,267.3847656z"/>
<path d="M138.9365234,200.6015625c-8.4394531,16.5742188-18.8105469,32.7363281-30.8242188,48.0410156l-1.8017578,2.9501953
	v45.1162109l23.34375-29.0029297l0.421875-0.5371094c11.4580078-14.5976563,21.6523438-29.984375,30.3007813-45.7373047
	l0.1884766-0.3427734l-21.3056641-21.1240234L138.9365234,200.6015625z M108.9667969,249.234375
	c11.8681641-15.1142578,22.1484375-31.1240234,30.5605469-47.5380859
	c0.9257813,0.9179688,19.2011719,19.0371094,19.7421875,19.5732422
	c-8.5810547,15.5830078-18.671875,30.8085938-30.0117188,45.2568359c0,0-0.4160156,0.5302734-0.4199219,0.5341797
	c-0.0039063,0.0048828-19.7841797,24.5800781-21.4853516,26.6943359c0-2.7470703,0-41.5898438,0-41.8691406
	C107.4912109,251.6572266,108.9667969,249.234375,108.9667969,249.234375z"/>
<path fill="#FFFFFF" d="M104.6904297,249.1044922l-0.0083008-0.0097656l0.0063477,0.0068359
	c-12.0664063-15.3710938-22.3237305-31.4101563-30.71875-47.9716797l-21.3286133,21.1455078
	c8.3759766,15.3447266,18.1948242,30.2382813,29.4467773,44.5712891l24.3955078,28.8173828l0.3476563-0.4326172v-43.4921875
	l-2.1425781-2.6376953C104.6889648,249.1025391,104.6894531,249.1035156,104.6904297,249.1044922z"/>
<path d="M73.6030273,200.7597656l-21.6064453,21.421875l0.1879883,0.3427734
	c8.4072266,15.4033203,18.3300781,30.421875,29.4941406,44.6435547l24.8154297,29.3134766l0.8583984-1.0664063v-43.8613281
	c0,0-2.2475586-2.7636719-2.2558594-2.7753906c-11.96875-15.2470703-22.2856445-31.3574219-30.6630859-47.8828125
	l-0.3227539-0.6386719L73.6030273,200.7597656z M73.8417969,201.9892578
	c8.3510742,16.3681641,18.5771484,32.3261719,30.4375,47.4335938c0,0,1.8232422,2.2441406,2.03125,2.5009766
	c0,0.3623047,0,41.6103516,0,42.7304688c-1.0874023-1.2851563-23.8251953-28.1445313-23.8251953-28.1445313
	c-11.034668-14.0556641-20.8535156-28.9140625-29.1933594-44.1455078
	C53.8320313,221.828125,72.9121094,202.9111328,73.8417969,201.9892578z"/>
<path fill="#FFFFFF" d="M162.2861328,113.6069336c-1.5673828,0-62.7231445,0-93.621582,0l74.7436523,72.050293
	C160.3037109,147.3085938,162.0380859,118.7392578,162.2861328,113.6069336z"/>
<path fill="#FFFFFF" d="M106.8310547,246.4580078c11.1162109-14.2832031,19.9951172-28.2373047,27.0957031-41.4179688
	l-81.34375-78.4106445C56.0361328,149.1386719,67.7739258,196.2373047,106.8310547,246.4580078z"/>
<path fill="#FF0000" d="M52.3334961,124.9428711c25.7451172,24.8168945,57.0405273,54.9848633,82.1049805,79.144043
	c3.1933594-5.9833984,6.0185547-11.8027344,8.5205078-17.4179688
	c-23.6103516-22.7592773-51.9091797-50.0380859-75.7944336-73.0620117c-9.2685547,0-15.4853516,0-15.9667969,0
	C51.2519531,115.2163086,51.503418,119.1459961,52.3334961,124.9428711z"/>
<path d="M143.1835938,186.1630859c0.0742188-0.1679688,0.1513672-0.3378906,0.2246094-0.5058594l-74.7436523-72.050293
	c-0.2529297,0-0.5019531,0-0.75,0L143.1835938,186.1630859z"/>
<path d="M52.4545898,125.7827148c0.0415039,0.2773438,0.0844727,0.5610352,0.128418,0.8466797l81.34375,78.4106445
	c0.0849609-0.1572266,0.1728516-0.3173828,0.2578125-0.4746094L52.4545898,125.7827148z"/>
<path d="M52.3334961,124.9428711c0.0395508,0.2773438,0.0791016,0.5541992,0.1210938,0.8398438l81.7299805,78.7827148
	c0.0859375-0.1601563,0.1679688-0.3183594,0.2539063-0.4785156
	C109.3740234,179.9277344,78.0786133,149.7597656,52.3334961,124.9428711z"/>
<path d="M67.1645508,113.6069336c23.8852539,23.0239258,52.184082,50.3027344,75.7944336,73.0620117
	c0.0742188-0.1689453,0.1503906-0.3378906,0.2246094-0.5058594l-75.269043-72.5561523
	C67.6650391,113.6069336,67.4101563,113.6069336,67.1645508,113.6069336z"/>
</svg>
